<!-- <svg xmlns="http://www.w3.org/2000/svg" viewBox="0 0 1000 1000" preserveAspectRatio="none">
  <rect width="1000" height="1000" fill="black"/>
  <polygon fill="white" points="
    0,0 130,0 150,20 390,20 410,0 970,0 1000,33
    1000,440 980,460 980,673 1000,693 1000,1000
    50,1000 50,1000 0,967 0,967
  "/>
</svg> -->

<svg xmlns="http://www.w3.org/2000/svg" viewBox="0 0 1000 1000" preserveAspectRatio="none">
  <!-- ВНЕ доступной области: полностью прозрачная альфа -->
  <!-- Можно вообще убрать этот rect, по умолчанию фон прозрачный -->
  <!-- <rect width="1000" height="1000" fill="black" fill-opacity="0"/> -->

  <!-- ДОСТУПНАЯ область: непрозрачная альфа -->
  <polygon fill="white" points="
    0,0 130,0 150,20 390,20 410,0 970,0 1000,33
    1000,440 980,460 980,673 1000,693 1000,1000
    50,1000 50,1000 0,967 0,967
  "/>
</svg>

