<svg width="22" height="28" viewBox="0 0 22 28" fill="none" xmlns="http://www.w3.org/2000/svg">
<path d="M21.2229 12.3364C22.2336 13.0893 22.2336 14.785 21.2861 15.538L18.6196 17.048L14.668 13.9373L18.6293 10.8859L21.2229 12.3364Z" fill="#FFC801"/>
<path d="M18.6403 17.0334L18.6397 17.0328H18.6392L14.6645 13.939L14.6632 13.9378L14.6626 13.9384L14.6609 13.9366L14.6469 13.9472L0.0107422 25.0947V25.5605C0.0106836 26.1759 0.154707 26.8323 0.646191 27.0602C1.29377 27.3605 2.23859 26.7736 2.23859 26.7736L18.6403 17.0334Z" fill="#F93647"/>
<path d="M14.6469 13.9472L0.0107422 25.0947V2.55008L14.6434 13.9425L14.6469 13.9472Z" fill="#00D3FF"/>
<path d="M0.0107422 2.3245V2.55009L14.6433 13.9425L14.6469 13.9472L14.6609 13.9366L14.6621 13.936L14.668 13.9313L18.6293 10.9029C18.6293 10.9029 5.8891 3.2862 2.19582 1.08952C2.03516 0.993952 1.65014 0.75155 1.18848 0.902722C0.63541 1.08389 0.0107422 1.74178 0.0107422 2.3245Z" fill="#00EF77"/>
</svg>
