<?xml version="1.0" encoding="utf-8"?>
<svg aria-hidden="true" style="position: absolute; width: 0; height: 0; overflow: hidden;" version="1.1" xmlns="http://www.w3.org/2000/svg" xmlns:xlink="http://www.w3.org/1999/xlink">
<defs>
<symbol id="star-rate" viewBox="0 0 34 32">
<path d="M13.176 23.299l3.765-2.902 3.765 2.902-1.412-4.784 3.529-2.51h-4.392l-1.49-4.863-1.49 4.863h-4.392l3.529 2.51-1.412 4.784zM7.255 31.691l3.647-11.922-9.647-6.902h11.922l3.765-12.549 3.765 12.549h11.922l-9.647 6.902 3.647 11.922-9.686-7.373-9.686 7.373z"/>
</symbol>
<symbol id="google-play" viewBox="0 0 25 32">
<path d="M24.255 14.099c1.155 0.86 1.155 2.798 0.072 3.659l-3.047 1.726-4.516-3.555 4.527-3.487 2.964 1.658z" fill="#ffc801" style="fill: var(--color1, #ffc801)"/>
<path d="M21.303 19.467l-0.001-0.001h-0.001l-4.547-3.538-0.016 0.012-16.727 12.74v0.532c-0 0.703 0.165 1.454 0.726 1.714 0.74 0.343 1.82-0.328 1.82-0.328l18.745-11.132z" fill="#f93647" style="fill: var(--color2, #f93647)"/>
<path d="M16.739 15.94l-16.727 12.74v-25.765l16.727 13.025z" fill="#00d3ff" style="fill: var(--color3, #00d3ff)"/>
<path d="M0.012 2.657v0.258l16.727 13.025 0.016-0.012 0.001-0.001 0.007-0.005 4.527-3.461c0 0-14.56-8.705-18.781-11.215-0.184-0.109-0.624-0.386-1.151-0.213-0.632 0.207-1.346 0.959-1.346 1.625z" fill="#00ef77" style="fill: var(--color4, #00ef77)"/>
</symbol>
<symbol id="arrow-right" viewBox="0 0 16 32">
<path d="M0.444 32.003v-31.111l15.556 15.556-15.556 15.556z"/>
</symbol>
<symbol id="arrow-left" viewBox="0 0 17 32">
<path d="M16.444 32.003l-15.556-15.556 15.556-15.556v31.111z"/>
</symbol>
<symbol id="ac-arrow" viewBox="0 0 43 32">
<path d="M21.333 29.639l-21.333-23.063 4.978-5.381 16.356 17.682 16.356-17.682 4.978 5.381-21.333 23.063z"></path>
</symbol>

<symbol id="circle" viewBox="0 0 24 24">
  <circle cx="12" cy="12" r="12"/>
</symbol>

<symbol id="close-form" viewBox="0 0 32 32">
  <path d="M32 3.223 28.777 0 16 12.777 3.223 0 0 3.223 12.777 16 0 28.777 3.223 32 16 19.223 28.777 32 32 28.777 19.223 16 32 3.223z"/>
</symbol>

<symbol id="name-frame" viewBox="0 0 282 72">
<path d="M32.4395 1L39.3506 7.59473V7.5957L39.4893 7.72656L39.7783 8.00293H107.96L108.238 7.77148L108.367 7.66406V7.66309L116.349 1H281V62.3984L273.507 71H234.718L226.679 65.9668H226.678L226.578 65.9023L226.333 65.7471H162.565L162.304 65.9355L162.188 66.0195L155.227 71H11.5371L1 61.4023V1H32.4395Z" fill="none" stroke="#FEFFE8" stroke-width="2"/>
</symbol>

<symbol id="arrow-back-link" viewBox="0 0 43 32">
<path d="M16 32l-16-16 16-16 3.733 3.867-9.467 9.467h32.4v5.333h-32.4l9.467 9.467-3.733 3.867z"></path>
</symbol>

</defs>
</svg>