<svg aria-hidden="true" style="position: absolute; width: 0; height: 0; overflow: hidden;" version="1.1" xmlns="http://www.w3.org/2000/svg" xmlns:xlink="http://www.w3.org/1999/xlink">
<defs>
<symbol id="star-rate" viewBox="0 0 34 32">
<path d="M13.176 23.299l3.765-2.902 3.765 2.902-1.412-4.784 3.529-2.51h-4.392l-1.49-4.863-1.49 4.863h-4.392l3.529 2.51-1.412 4.784zM7.255 31.691l3.647-11.922-9.647-6.902h11.922l3.765-12.549 3.765 12.549h11.922l-9.647 6.902 3.647 11.922-9.686-7.373-9.686 7.373z"></path>
</symbol>
<symbol id="google-play" viewBox="0 0 25 32">
<path fill="#ffc801" style="fill: var(--color1, #ffc801)" d="M24.255 14.099c1.155 0.86 1.155 2.798 0.072 3.659l-3.047 1.726-4.516-3.555 4.527-3.487 2.964 1.658z"></path>
<path fill="#f93647" style="fill: var(--color2, #f93647)" d="M21.303 19.467l-0.001-0.001h-0.001l-4.547-3.538-0.016 0.012-16.727 12.74v0.532c-0 0.703 0.165 1.454 0.726 1.714 0.74 0.343 1.82-0.328 1.82-0.328l18.745-11.132z"></path>
<path fill="#00d3ff" style="fill: var(--color3, #00d3ff)" d="M16.739 15.94l-16.727 12.74v-25.765l16.727 13.025z"></path>
<path fill="#00ef77" style="fill: var(--color4, #00ef77)" d="M0.012 2.657v0.258l16.727 13.025 0.016-0.012 0.001-0.001 0.007-0.005 4.527-3.461c0 0-14.56-8.705-18.781-11.215-0.184-0.109-0.624-0.386-1.151-0.213-0.632 0.207-1.346 0.959-1.346 1.625z"></path>
</symbol>
<symbol id="arrow-right" viewBox="0 0 16 32">
<path d="M0.444 32.003v-31.111l15.556 15.556-15.556 15.556z"></path>
</symbol>
<symbol id="arrow-left" viewBox="0 0 17 32">
<path d="M16.444 32.003l-15.556-15.556 15.556-15.556v31.111z"></path>
</symbol>
</defs>
</svg>
